<?xml version="1.0" standalone="no"?>
<!DOCTYPE svg PUBLIC "-//W3C//DTD SVG 20010904//EN"
 "http://www.w3.org/TR/2001/REC-SVG-20010904/DTD/svg10.dtd">
<svg version="1.0" xmlns="http://www.w3.org/2000/svg"
 width="32.000000pt" height="32.000000pt" viewBox="0 0 32.000000 32.000000"
 preserveAspectRatio="xMidYMid meet">

<g transform="translate(0.000000,32.000000) scale(0.100000,-0.100000)"
fill="#000000" stroke="none">
<path d="M31 287 c-17 -21 -3 -49 23 -45 15 2 21 10 21 28 0 28 -26 38 -44 17z
m39 -23 c0 -14 -21 -19 -33 -7 -9 9 13 34 24 27 5 -3 9 -12 9 -20z"/>
<path d="M102 263 c-2 -42 -2 -42 -44 -46 l-43 -4 43 -1 42 -2 0 -49 0 -50
-42 -4 -43 -4 42 -1 c42 -2 42 -2 46 -44 l4 -43 1 43 2 42 49 0 50 0 4 -43 4
-42 1 42 c2 42 2 42 45 46 l42 4 -42 1 -43 2 0 49 0 50 38 4 37 4 -37 1 c-36
2 -37 3 -41 45 l-4 42 -1 -42 -2 -43 -49 0 -50 0 -4 43 -4 42 -1 -42z m106
-105 l3 -48 -50 0 -51 0 0 51 0 50 48 -3 47 -3 3 -47z"/>
<path d="M144 160 c0 -9 7 -16 16 -16 9 0 16 7 16 16 0 9 -7 16 -16 16 -9 0
-16 -7 -16 -16z"/>
<path d="M142 291 c-23 -14 -10 -46 18 -46 16 0 26 6 28 19 3 16 -12 36 -28
36 -3 0 -11 -4 -18 -9z m36 -23 c-3 -7 -11 -13 -18 -13 -7 0 -15 6 -17 13 -3
7 4 12 17 12 13 0 20 -5 18 -12z"/>
<path d="M244 269 c0 -11 6 -17 12 -15 6 2 16 0 22 -6 7 -7 10 -2 9 15 -2 31
-43 36 -43 6z"/>
<path d="M240 175 c-10 -12 -10 -18 0 -30 7 -8 18 -15 25 -15 7 0 18 7 25 15
10 12 10 18 0 30 -7 8 -18 15 -25 15 -7 0 -18 -7 -25 -15z m40 -15 c0 -11 -7
-20 -15 -20 -8 0 -15 9 -15 20 0 11 7 20 15 20 8 0 15 -9 15 -20z"/>
<path d="M33 58 c1 -16 9 -23 23 -24 17 -1 20 3 16 18 -2 10 -7 16 -10 13 -3
-2 -11 0 -18 5 -9 8 -12 5 -11 -12z"/>
<path d="M137 74 c-12 -13 -8 -42 8 -48 25 -9 46 5 43 28 -3 21 -37 34 -51 20z
m41 -22 c2 -7 -6 -12 -17 -12 -21 0 -27 11 -14 24 9 9 26 2 31 -12z"/>
</g>
</svg>
